# xmcd
#
# Track frame offsets:
#	150
#	33368
#	51548
#	71530
#	84305
#	100993
#	168225
#	217810
#	233820
#	246328
#
# Disc length: 3857 seconds
#
# Revision: 1
# Processed by: cddbd v1.5.1PL0 Copyright (c) Steve Scherf et al.
# Submitted via: CDex 1.50Beta5
#
DISCID=810f0f0a
DTITLE=Various Artist - DEEP NIGHT JAZZ
DYEAR=1900
DGENRE=JAZZ
TTITLE0=アート・ブレイキー&ジャズ・メッセンジャーズ/危険な関係のブルース
TTITLE1=ケニー・バレル/ミッドナイト・ブルー
TTITLE2=バド・パウエル/クレオパトラの夢
TTITLE3=マイルス・デイヴィス/「死刑台のエレベーター」のテーマ
TTITLE4=J・J・ジョンソン/カプリ
TTITLE5=ジョン・コルトレーン/インプレッションズ
TTITLE6=キャノンボール・アダレイ/枯葉
TTITLE7=フォー・フレッシュメン&ファイブ・トロンボーンズ/エンジェル・アイズ
TTITLE8=アート・ブレイキー&ジャズ・メッセンジャーズ/「殺られる」のテーマ
TTITLE9=ソニー・クラーク/ディープ・ナイト
EXTD=
EXTT0=
EXTT1=
EXTT2=
EXTT3=
EXTT4=
EXTT5=
EXTT6=
EXTT7=
EXTT8=
EXTT9=
PLAYORDER=
